<svg viewBox="0 -96 126 96" xmlns="http://www.w3.org/2000/svg">
    <style>
        .fill-none { fill: transparent; }
        .fill-debug { fill: rgba(255, 0, 0, 0.5); }
        .fill-wood { fill: beige; }
        .fill-wood-dark { fill: burlywood; }
        .fill-tile-primary { fill: #384048; }
        .fill-tile-inlay { fill: beige; }
        .fill-black { fill: black; }
        .fill-white { fill: white; }
        .fill-grout { fill: #444; }
        .fill-counter { fill: #111; }
        .fill-metal-dark { fill: #888; }
        .fill-metal-fixture { fill: #ccc; }

        .stroke-none { stroke: transparent; stroke-width: 0 }
        .stroke-debug { stroke: rgba(255, 0, 0, 0.5); }
        .stroke-black { stroke: black; stroke-width: 0.1; }
        .stroke-tile-inlay { stroke: beige; stroke-width: 0.1; }
        .stroke-metal-fixture { stroke: #ccc; stroke-width: 0.1; }
        .stroke-wood { stroke: beige; stroke-width: 0.1; }

        .stroke-quarter-inch { stroke-width: 0.25; }
        .stroke-half-inch { stroke-width: 0.5; }
        .stroke-inch { stroke-width: 1; }
    </style>

    <defs>
        <mask id="hex-mask">
            <path class="fill-white stroke-none"
                d="M-6.25 -3.608439 L-6.25 3.608439 L0 7.216878 L6.25 3.608439 L6.25 -3.608439 L0 -7.216878z" />
        </mask>
        <g id="hex-tile" mask="url(#hex-mask)">
            <!-- hexes are 12.5 side-to-side. This gives 12.5 * 1.5 / √3 = ~7.216878 one side. 3.608439 = half-side  -->
            <!-- That means that "size" according to https://www.redblobgames.com/grids/hexagons/ is 12.5 / √3 = 7.216878 -->
            <!-- or 12.75 / √3 if using .25" grout -->
            <path class="fill-tile-primary stroke-none"
                d="M-6.25 -3.608439 L-6.25 3.608439 L0 7.216878 L6.25 3.608439 L6.25 -3.608439 L0 -7.216878z" />
            <path class="fill-tile-inlay stroke-none"
                d="M-6.25 3.608439 L0 7.216878 L6.25 3.608439z" />
        </g>

        <pattern id="tile-up" viewBox="-6.375 -11.041823 12.75 22.083646" width="12.75" height="22.083646" patternUnits="userSpaceOnUse">
            <!-- 1.5 * 12.75 / √3 = 11.041823 -->
            <g>
                <rect class="fill-grout" x="-12.75" y="-22.083646" width="25.5" height="44.167292" />
                <!-- grout line 0.25" -->
                <use x="-12.75" y="0" href="#hex-tile" />
                <use x="0" y="0" href="#hex-tile" />
                <use x="12.75" y="0" href="#hex-tile" />
                <use x="-6.375" y="11.041823" href="#hex-tile" />
                <use x="6.375" y="11.041823" href="#hex-tile" />
                <use x="-6.375" y="-11.041823" href="#hex-tile" />
                <use x="6.375" y="-11.041823" href="#hex-tile" />
            </g>
        </pattern>

        <g id="3-hex-burst" transform="rotate(180)">
                <!-- grout line 0.25" -->
            <!-- 1.5 * 12.75 / √3 = 11.041823 - 12.5 / √3 = 3.824945 -->
            <use x="0" y="-7.216878" href="#hex-tile" />
            <use x="-6.375" y="3.824945" href="#hex-tile" transform-origin="-6.375 3.824945" transform="rotate(-120)" />
            <use x="6.375" y="3.824945" href="#hex-tile" transform-origin="6.375 3.824945" transform="rotate(120)" />
        </g>

        <pattern id="tile-burst" viewBox="-19.125 -22.083646 38.25 22.083646" width="38.25" height="22.083646" y="-36" x="63" patternUnits="userSpaceOnUse">
            <g>
                <rect class="fill-grout" x="-19.125" y="-22.083646" width="38.25" height="44.167292" />
                <!-- grout line 0.25" -->
                <use x="0" y="0" href="#3-hex-burst" />
                <use x="0" y="-22.083646" href="#3-hex-burst" />
                <use x="19.125" y="-11.041823" href="#3-hex-burst" />
                <use x="-19.125" y="-11.041823" href="#3-hex-burst" />
                <use x="19.125" y="11.041823" href="#3-hex-burst" />
                <use x="-19.125" y="11.041823" href="#3-hex-burst" />
                <use x="19.125" y="-33.125469" href="#3-hex-burst" />
                <use x="-19.125" y="-33.125469" href="#3-hex-burst" />

                <!-- <rect class="fill-none stroke-debug" stroke-width="0.1" x="-12.75" y="-22.083646" width="25.5" height="22.083646" /> -->
            </g>
        </pattern>

        <g id="3-hex-burst-thin" transform="rotate(180)">
                <!-- grout line 0.0625" -->
                <!-- 12.5625 / √3 = 7.252962 -->
            <!-- (1.5 * 12.5625 - 12.5) / √3 = 3.662566 -->
            <use x="0" y="-7.216878" href="#hex-tile" />
            <use x="-6.3125" y="3.662566" href="#hex-tile" transform-origin="-6.3125 3.662566" transform="rotate(-120)" />
            <use x="6.3125" y="3.662566" href="#hex-tile" transform-origin="6.3125 3.662566" transform="rotate(120)" />
        </g>

        <pattern id="tile-burst-thin" viewBox="-18.84375 -21.758888 37.6875 21.758888" width="37.6875" height="21.758888" y="-35.209677" x="63" patternUnits="userSpaceOnUse">
            <g>
                <!-- 1.5 * 12.5625 / √3 = 10.879444 -->
                <!-- 10.879444 * 2 = 21.758888 -->
                <!-- 10.879444 * 3 = 32.638332 -->
                <!-- 12.5625 * 1.5 =  -->
                <rect class="fill-grout" x="-19.125" y="-22.083646" width="38.25" height="44.167292" />

                <use x="0" y="0" href="#3-hex-burst-thin" />
                <use x="0" y="-21.758888" href="#3-hex-burst-thin" />
                <use x="18.84375" y="-10.879444" href="#3-hex-burst-thin" />
                <use x="-18.84375" y="-10.879444" href="#3-hex-burst-thin" />

                <use x="18.84375" y="-32.638332" href="#3-hex-burst-thin" />
                <use x="-18.84375" y="-32.638332" href="#3-hex-burst-thin" />

                <!-- <rect class="fill-none stroke-debug" stroke-width="0.1" x="-18.84375" y="-21.758888" width="38.25" height="21.758888" /> -->
            </g>
        </pattern>

        <g id="3-hex-tri-thin" transform="rotate(180)">
                <!-- grout line 0.0625" -->
                <!-- 12.5625 / √3 = 7.252962 -->
            <!-- (1.5 * 12.5625 - 12.5) / √3 = 3.662566 -->
            <use x="0" y="-7.216878" href="#hex-tile" transform-origin="0 -7.216878" transform="rotate(-180)" />
            <use x="-6.3125" y="3.662566" href="#hex-tile" transform-origin="-6.3125 3.662566" transform="rotate(-300)" />
            <use x="6.3125" y="3.662566" href="#hex-tile" transform-origin="6.3125 3.662566" transform="rotate(300)" />
        </g>

        <pattern id="tile-tri-thin" viewBox="-18.84375 -21.758888 37.6875 21.758888" width="37.6875" height="21.758888" y="-35.209677" x="63" patternUnits="userSpaceOnUse">
            <g>
                <!-- 1.5 * 12.5625 / √3 = 10.879444 -->
                <!-- 10.879444 * 2 = 21.758888 -->
                <!-- 10.879444 * 3 = 32.638332 -->
                <!-- 12.5625 * 1.5 =  -->
                <rect class="fill-grout" x="-19.125" y="-22.083646" width="38.25" height="44.167292" />

                <use x="0" y="0" href="#3-hex-tri-thin" />
                <use x="0" y="-21.758888" href="#3-hex-tri-thin" />
                <use x="18.84375" y="-10.879444" href="#3-hex-tri-thin" />
                <use x="-18.84375" y="-10.879444" href="#3-hex-tri-thin" />

                <use x="18.84375" y="-32.638332" href="#3-hex-tri-thin" />
                <use x="-18.84375" y="-32.638332" href="#3-hex-tri-thin" />

                <!-- <rect class="fill-none stroke-debug" stroke-width="0.1" x="-18.84375" y="-21.758888" width="38.25" height="21.758888" /> -->
            </g>
        </pattern>

        <pattern id="tile-up-thin" viewBox="-6.28125 -10.879444 12.5625 21.758888" width="12.5625" height="21.758888" patternUnits="userSpaceOnUse">
            <!-- 1.5 * 12.5625 / √3 = 10.879444 -->
            <g>
                <rect class="fill-grout" x="-12.5625" y="-21.758888" width="25.5" height="44.167292" />
                <!-- grout line 0.25" -->
                <use x="-12.5625" y="0" href="#hex-tile" />
                <use x="0" y="0" href="#hex-tile" />
                <use x="12.5625" y="0" href="#hex-tile" />
                <use x="-6.28125" y="10.879444" href="#hex-tile" />
                <use x="6.28125" y="10.879444" href="#hex-tile" />
                <use x="-6.28125" y="-10.879444" href="#hex-tile" />
                <use x="6.28125" y="-10.879444" href="#hex-tile" />
            </g>
        </pattern>

        <g id="cabinet">
            <rect class="fill-wood stroke-black" width="18" height="30" />
        </g>

        <pattern id="wine-cabinet-fill" viewBox="0 0 6.363961 6.363961" width="6.363961" height="6.363961" patternContentUnits="objectBoundingBox" patternUnits="userSpaceOnUse">
            <rect class="fill-wood-dark" x="0" y="0" width="4" height="4" transform="translate(0 0.353553) rotate(45)" />
            <rect class="fill-wood-dark" x="0" y="0" width="4" height="4" transform="translate(6.363961 0.353553) rotate(45)" />
            <rect class="fill-wood-dark" x="0" y="0" width="4" height="4" transform="translate(0.353553 0) rotate(-45)" />
            <rect class="fill-wood-dark" x="0" y="0" width="4" height="4" transform="translate(0.353553 6.363961) rotate(-45)" />
        </pattern>

        <g id="wine-cabinet">
            <use href="#cabinet" x="0" y="0" />
            <rect class="stroke-black" fill="url(#wine-cabinet-fill)" x="-7.5" y="-13.5" width="15" height="27" transform="translate(9 15)" />
        </g>

        <pattern id="wine-fridge-cabinet-fill" viewBox="0 0 6.363961 6.363961" width="6.363961" height="6.363961" patternContentUnits="objectBoundingBox" patternUnits="userSpaceOnUse">
            <rect class="fill-metal-fixture" x="0" y="0" width="6.363961" height="6.363961" />

            <rect class="fill-metal-dark" x="0" y="0" width="4" height="4" transform="translate(0 0.353553) rotate(45)" />
            <rect class="fill-metal-dark" x="0" y="0" width="4" height="4" transform="translate(6.363961 0.353553) rotate(45)" />
            <rect class="fill-metal-dark" x="0" y="0" width="4" height="4" transform="translate(0.353553 0) rotate(-45)" />
            <rect class="fill-metal-dark" x="0" y="0" width="4" height="4" transform="translate(0.353553 6.363961) rotate(-45)" />
        </pattern>

        <g id="wine-fridge-cabinet">
            <use href="#cabinet" x="0" y="0" />
            <rect class="stroke-black" fill="url(#wine-fridge-cabinet-fill)" x="-7.5" y="-13.5" width="15" height="27" transform="translate(9 15)" />
            <rect class="stroke-black fill-metal-fixture" x="0.5" y="1.5" width="0.5" height="4" />
        </g>

        <g id="drink-fridge-cabinet">
            <use href="#cabinet" x="0" y="0" />
            <rect class="stroke-none fill-metal-dark" x="1.5" y="1.5" width="15" height="27" />
            <rect class="stroke-none fill-metal-fixture" x="1.5" y="6" width="15" height="0.25" />
            <rect class="stroke-none fill-metal-fixture" x="1.5" y="10.5" width="15" height="0.25" />
            <rect class="stroke-none fill-metal-fixture" x="1.5" y="15" width="15" height="0.25" />
            <rect class="stroke-none fill-metal-fixture" x="1.5" y="19.5" width="15" height="0.25" />
            <rect class="stroke-none fill-metal-fixture" x="1.5" y="24" width="15" height="0.25" />
            <rect class="stroke-black fill-none" x="1.5" y="1.5" width="15" height="27" />
            <rect class="stroke-black fill-metal-fixture" x="0.5" y="1.5" width="0.5" height="4" />
        </g>

        <g id="drawer-cabinet">
            <use href="#cabinet" x="0" y="0" />
            <line class="stroke-black" x1="0" y1="15" x2="18" y2="15" />
            <rect class="stroke-black fill-metal-fixture" x="3" y="1.5" width="12" height="0.5" />
            <rect class="stroke-black fill-metal-fixture" x="3" y="16.5" width="12" height="0.5" />
        </g>
    </defs>

    <!-- <rect class="stroke-none" fill="black" x="0" y="-96" width="126" height="96" /> -->
    <!-- <rect class="stroke-none" fill="url(#tile-up)" x="0" y="-96" width="126" height="96" /> -->
    <!-- <rect class="stroke-none" fill="url(#tile-burst)" x="0" y="-96" width="126" height="96" /> -->
    <!-- <rect class="stroke-none" fill="url(#tile-up-thin)" x="0" y="-96" width="126" height="96" /> -->
    <!-- <rect class="stroke-none" fill="url(#tile-tri-thin)" x="0" y="-96" width="126" height="96" /> -->
    <rect class="stroke-none" fill="url(#tile-burst-thin)" x="0" y="-96" width="126" height="96" />
    <!-- <rect class="stroke-none" fill="url(#wine-cabinet-fill)" x="0" y="-96" width="126" height="96" /> -->

    <!-- <g transform="translate(63, -48)">
        <use x="0" y="0" href="#3-hex-burst-thin" />
        <use x="0" y="-21.758888" href="#3-hex-burst-thin" />
        <use x="18.84375" y="-10.879444" href="#3-hex-burst-thin" />
        <use x="-18.84375" y="-10.879444" href="#3-hex-burst-thin" />

        <use x="18.84375" y="-32.638332" href="#3-hex-burst-thin" />
        <use x="-18.84375" y="-32.638332" href="#3-hex-burst-thin" />

        <rect class="fill-none stroke-debug" stroke-width="0.1" x="-18.84375" y="-21.758888" width="37.6875" height="21.758888" />
    </g> -->

    <g id="base-cabinets">
        <rect class="fill-wood-dark stroke-black" x="0" y="-4" width="126" height="4" />
        <use href="#drink-fridge-cabinet" x="0" y="-34" />
        <use href="#cabinet" x="18" y="-34" />
        <use href="#drink-fridge-cabinet" x="36" y="-34" />
        <use href="#cabinet" x="54" y="-34" />
        <use href="#drawer-cabinet" x="72" y="-34" />
        <use href="#wine-fridge-cabinet" x="90" y="-34" />
        <use href="#cabinet" x="108" y="-34" />
        <!-- 3cm thick = 1.209677 -->
        <rect class="fill-counter stroke-black" x="0" y="-35.209677" width="126" height="1.209677" />

        <path d="M0 0 v-5 C0 -8 -2 -8 -2 -5" class="stroke-metal-fixture stroke-half-inch fill-none" transform="translate(64.5 -35.209677)" />
    </g>

    <g id="top-cabinets">
        <use href="#cabinet" x="0" y="-84" />
        <use href="#cabinet" x="18" y="-84" />

        <use href="#wine-cabinet" x="90" y="-84" />
        <use href="#cabinet" x="108" y="-84" />

        <line class="stroke-wood stroke-half-inch" x1="42" x2="84" y1="-64" y2="-64" />
        <line class="stroke-wood stroke-half-inch" x1="42" x2="84" y1="-74" y2="-74" />
    </g>
</svg>
